<?xml version="1.0" encoding="utf-8"?>
<!-- Generator: Adobe Illustrator 20.1.0, SVG Export Plug-In . SVG Version: 6.00 Build 0)  -->
<svg version="1.1" id="Layer_1" xmlns="http://www.w3.org/2000/svg" xmlns:xlink="http://www.w3.org/1999/xlink" x="0px" y="0px"
	 viewBox="0 0 647.5 134.7" style="enable-background:new 0 0 647.5 134.7;" xml:space="preserve">
<style type="text/css">
	.st0{fill:#231F20;}
</style>
<rect x="99.7" y="41.1" class="st0" width="30.3" height="92.2"/>
<rect x="136.3" y="5" class="st0" width="30.3" height="128.3"/>
<rect x="172.9" y="5" class="st0" width="30.3" height="128.3"/>
<path class="st0" d="M114.9,0c-9.7,0-17.6,7.9-17.6,17.6c0,9.7,7.9,17.6,17.6,17.6c9.7,0,17.6-7.9,17.6-17.6
	C132.5,7.9,124.6,0,114.9,0"/>
<path class="st0" d="M48.1,105.2c-9.7,0-17.6-7.9-17.6-17.6c0-9.7,7.9-17.6,17.6-17.6c9.7,0,17.6,7.9,17.6,17.6
	C65.7,97.3,57.8,105.2,48.1,105.2 M51.3,39.8c-8.3,0-15.1,1.8-21,5.9V5H0v128.3h29.8v-8.4c7.2,6.6,14.9,9.7,24.4,9.7
	c23.1,0,42.2-20.5,42.2-47C96.4,59.4,76.6,39.8,51.3,39.8"/>
<path class="st0" d="M529.6,50.6v-9.5h-30.3v92.2h30.3v-44c0-11.3,5.9-17.4,16.7-17.4h3.6V40.2C540.7,40.5,534.1,43.4,529.6,50.6"/>
<path class="st0" d="M442.7,104.3c-9.7,0-17.6-7.9-17.6-17.6c0-9.7,7.9-17.6,17.6-17.6c9.7,0,17.6,7.9,17.6,17.6
	C460.3,96.5,452.4,104.3,442.7,104.3 M351.6,103.8c-9.7,0-17.6-7.9-17.6-17.6c0-9.7,7.9-17.6,17.6-17.6c9.7,0,17.6,7.9,17.6,17.6
	C369.2,95.9,361.3,103.8,351.6,103.8 M258,105.2c-9.7,0-17.6-7.9-17.6-17.6c0-9.7,7.9-17.6,17.6-17.6c9.7,0,17.6,7.9,17.6,17.6
	C275.6,97.3,267.7,105.2,258,105.2 M462.7,48.1c-4.3-4.6-14.2-8.5-21.7-8.5c-22.9,0-39.3,15.1-43.3,37.5
	c-4.4-21.5-23.2-38.1-46-38.1c-23.1,0-42,16.8-46.2,38.7c-4-22.8-21.9-37.9-44.2-37.9c-8.3,0-15.1,1.8-21,5.9V5h-30.3v128.3h29.8
	v-8.4c7.2,6.6,14.9,9.7,24.4,9.7c20.5,0,37.7-16,41.4-38.1c4.3,21.6,23,38.1,46,38.1c22.9,0,41.2-16.1,45.8-37.2
	c3.9,23,22.1,37.4,43.9,37.4c7.5,0,15.8-2.5,21.4-6.6v5.2H493V92.9c0-1.7,0-3.3,0-4.8c0-1.6,0-3.2,0-4.8v-42h-30.3V48.1z"/>
<path class="st0" d="M599.3,105c-9.7,0-17.6-7.9-17.6-17.6c0-9.7,7.9-17.6,17.6-17.6c9.7,0,17.6,7.9,17.6,17.6
	C616.9,97.1,609,105,599.3,105 M617.2,5v40.7c-5.9-4.1-12.7-5.9-21-5.9c-25.3,0-45,19.6-45,47.7c0,26.5,19,47,42.2,47
	c9.5,0,17.2-3,24.4-9.7v8.4h29.8V5H617.2z"/>
</svg>
