<svg version="undefined" xmlns="http://www.w3.org/2000/svg" width="1941.731" height="500" viewBox="0 0 1941.731 500"><path fill-rule="evenodd" clip-rule="evenodd" d="M261.672 495.797H108.158C37.355 495.797 0 443.262 0 363.302V136.918C0 56.994 16.952 0 119.31 0h39.12c72.23 0 103.748 57.073 103.748 137.705v44.548H144.4v-72.09c0-6.313-5.323-12.02-11.636-12.02h-1.446c-6.313 0-12.143 5.707-12.143 12.02v271.41c0 7.72 6.563 12.572 12.877 12.572H260.13l1.542 101.652zM929.41 5.087v490.71H811.635v-221.82l-26.988 221.82h-79.024l-28.976-221.82v221.82H559.27l-.395-490.71H714.89l29.25 221.96 28.937-221.96H929.41zm297.06 0h119.176v389.058h82.018v101.65h-201.192V5.085zm713.855 0l-63.078 236.938 64.484 253.77h-123.367l-22.43-126.182-25.947 126.183h-107.26l64.502-236.95-63.095-253.76h123.377l20.328 124.077 25.234-124.077h107.253zM393.45 112.457v275.13c0 7.43 6.028 13.45 14.11 13.45 7.43 0 13.447-6.022 13.447-13.452v-275.13c0-7.43-6.02-13.46-14.1-13.46-7.428 0-13.456 6.03-13.456 13.46zM540.583 394.85c0 70.798-34.357 105.15-105.164 105.15h-56.084c-70.798 0-105.146-34.353-105.146-105.15V106.03C274.19 35.227 308.536.88 379.334.88h56.083c70.807 0 105.164 34.348 105.164 105.15v288.82zm527.534-295.168v116.22l12.362.063c6.83 0 12.36-6.014 12.36-13.448V113.13c0-7.425-5.53-13.448-12.36-13.448h-12.363zm.405 204.85v191.265H949.35V5.087h155.625c70.798 0 105.15 34.347 105.15 105.145v89.153c0 70.802-34.353 105.146-105.15 105.146h-36.454zM1441.038 3.74h210.556v101.77h-91.24v89.83h87.74v101.77h-87.74v96.146H1653V495.03h-211.963V3.742z"/></svg>