<?xml version="1.0" encoding="utf-8"?>
<!-- Generator: Adobe Illustrator 20.1.0, SVG Export Plug-In . SVG Version: 6.00 Build 0)  -->
<svg version="1.1" id="Layer_1" xmlns="http://www.w3.org/2000/svg" xmlns:xlink="http://www.w3.org/1999/xlink" x="0px" y="0px"
	 viewBox="0 0 1142.1 739.9" style="enable-background:new 0 0 1142.1 739.9;" xml:space="preserve">
<style type="text/css">
	.st0{fill:#56C8E5;}
	.st1{fill:none;}
	.st2{fill:#FFFFFF;}
	.st3{font-family:'HelveticaNeueLTStd-Roman';}
	.st4{font-size:97.0926px;}
	.st5{letter-spacing:1;}
	.st6{letter-spacing:3;}
	.st7{opacity:0.4;fill:#FFFFFF;}
	.st8{opacity:0.6;fill:#FFFFFF;}
</style>
<rect class="st0" width="1142.1" height="739.9"/>
<rect x="141.1" y="558.6" class="st1" width="860.9" height="139.8"/>
<text transform="matrix(1 0 0 1 141.1317 627.8857)"><tspan x="0" y="0" class="st2 st3 st4">TH</tspan><tspan x="125.8" y="0" class="st2 st3 st4 st5">E </tspan><tspan x="216" y="0" class="st2 st3 st4">GOO</tspan><tspan x="437.3" y="0" class="st2 st3 st4 st5">D</tspan><tspan x="507.6" y="0" class="st2 st3 st4 st6"> </tspan><tspan x="538.5" y="0" class="st2 st3 st4">SPACE</tspan></text>
<g>
	<rect x="634.1" y="402.9" class="st7" width="42.3" height="84.6"/>
	<rect x="634.1" y="276" class="st8" width="42.3" height="84.6"/>
	<polygon class="st2" points="634.1,360.6 634.1,402.9 718.7,402.9 718.7,487.5 761,487.5 761,402.9 761,360.6 	"/>
</g>
<g>
	
		<rect x="560" y="99.9" transform="matrix(5.285044e-10 -1 1 5.285044e-10 41.7006 1087.0981)" class="st2" width="8.8" height="845.6"/>
	<path class="st2" d="M819.9,137.7v0.3c0,2.3-1.9,4.2-4.2,4.2l-380.7,0c-2.3,0-4.2-1.9-4.2-4.2v-0.3c0-2.3,1.9-4.2,4.2-4.2l380.7,0
		C818,133.5,819.9,135.4,819.9,137.7z"/>
	<path class="st2" d="M315,526.5h-0.3c-2.3,0-4.2-1.9-4.2-4.2l0-228.8c0-2.3,1.9-4.2,4.2-4.2h0.3c2.3,0,4.2,1.9,4.2,4.2l0,228.8
		C319.3,524.6,317.4,526.5,315,526.5z"/>
	<path class="st2" d="M434.8,526.5h-0.3c-2.3,0-4.2-1.9-4.2-4.2l0-383.9c0-2.3,1.9-4.2,4.2-4.2h0.3c2.3,0,4.2,1.9,4.2,4.2l0,383.9
		C439,524.6,437.1,526.5,434.8,526.5z"/>
	<path class="st2" d="M310.5,293.6v-0.3c0-2.3,1.9-4.2,4.2-4.2l231.1,0c2.3,0,4.2,1.9,4.2,4.2v0.3c0,2.3-1.9,4.2-4.2,4.2l-231.1,0
		C312.5,297.9,310.5,296,310.5,293.6z"/>
	<path class="st2" d="M312.1,296.7L312.1,296.7c-1.8-1.4-2.2-4.1-0.8-5.9l119.9-155.6c1.4-1.8,4.1-2.2,5.9-0.8h0
		c1.8,1.4,2.2,4.1,0.8,5.9L318.1,296C316.7,297.8,314,298.1,312.1,296.7z"/>
	<path class="st2" d="M543.6,297.1L543.6,297.1c-1.2-2-0.5-4.6,1.6-5.8l265.8-153.4c2-1.2,4.6-0.5,5.8,1.6l0,0
		c1.2,2,0.5,4.6-1.6,5.8L549.3,298.6C547.3,299.8,544.7,299.1,543.6,297.1z"/>
	<path class="st2" d="M546.3,526.8H546c-2.3,0-4.2-1.9-4.2-4.2l0-383.5c0-2.3,1.9-4.2,4.2-4.2h0.3c2.3,0,4.2,1.9,4.2,4.2l0,383.5
		C550.5,524.9,548.6,526.8,546.3,526.8z"/>
	<path class="st2" d="M815.8,526.3h-0.3c-2.3,0-4.2-1.9-4.2-4.2l0-384.3c0-2.3,1.9-4.2,4.2-4.2h0.3c2.3,0,4.2,1.9,4.2,4.2l0,384.3
		C820,524.4,818.1,526.3,815.8,526.3z"/>
</g>
</svg>
