<?xml version="1.0" encoding="utf-8"?>
<!-- Generator: Adobe Illustrator 20.1.0, SVG Export Plug-In . SVG Version: 6.00 Build 0)  -->
<svg version="1.1" id="Layer_2" xmlns="http://www.w3.org/2000/svg" xmlns:xlink="http://www.w3.org/1999/xlink" x="0px" y="0px"
	 viewBox="0 0 171.3 91.3" style="enable-background:new 0 0 171.3 91.3;" xml:space="preserve">
<style type="text/css">
	.st0{fill-rule:evenodd;clip-rule:evenodd;fill:#0699BF;}
	.st1{fill:#939598;}
	.st2{fill:#587483;}
</style>
<g>
	<path class="st0" d="M45.5,91.2C70.6,91.2,91,70.8,91,45.7c0-2.3-0.2-4.6-0.5-6.8h-12H65.2H48.5v20.5h12.9
		c-3.8,4.4-9.4,7.2-15.7,7.2c-11.4,0-20.8-9.3-20.8-20.8S34.2,25,45.7,25c5.9,0,11.2,2.5,15,6.4h28c-6-18.1-23.1-31.2-43.2-31.2
		c-7.8,0-15.2,2-21.6,5.4C11.3,12.5,2.3,25.1,0.4,39.8C0.1,41.8,0,43.7,0,45.7C0,70.8,20.4,91.2,45.5,91.2"/>
	<path class="st1" d="M122.8,66.5c-11.4,0-20.8-9.3-20.8-20.8c0-11.4,9.3-20.8,20.8-20.8c11.4,0,20.8,9.3,20.8,20.8c0,1-0.1,2-0.2,3
		L142,47h-28l14.3,18.7C126.5,66.2,124.7,66.5,122.8,66.5 M120.5,0c-11.8,0-22.5,4.5-30.6,11.9c-2.7,2.3-5,4.8-7.1,7.7
		c2.5,3.6,4.6,7.6,6,11.8H76.6c-0.8,2.4-1.4,4.9-1.8,7.4h3.7h12c0.3,2.2,0.5,4.5,0.5,6.8c0,9.7-3.1,18.7-8.3,26.1
		c2.1,2.8,4.4,5.4,7.1,7.7c8.1,7.4,18.9,11.9,30.6,11.9c7.6,0,14.8-1.9,21.1-5.2l1.8,2.4h28l-13.1-17.2c5-7.3,7.9-16.1,7.9-25.6
		C166.1,20.5,145.6,0,120.5,0"/>
	<path class="st2" d="M90.5,38.8h-12h-3.7c-0.3,2.2-0.5,4.5-0.5,6.8c0,9.8,3.2,18.8,8.5,26.1c5.2-7.4,8.3-16.4,8.3-26.1
		C91,43.3,90.8,41.1,90.5,38.8 M82.7,19.5c-2.6,3.6-4.7,7.6-6.1,11.8h12.1C87.3,27.1,85.3,23.1,82.7,19.5"/>
</g>
</svg>
