<?xml version="1.0" encoding="utf-8"?>
<!-- Generator: Adobe Illustrator 20.1.0, SVG Export Plug-In . SVG Version: 6.00 Build 0)  -->
<svg version="1.1" id="Layer_1" xmlns="http://www.w3.org/2000/svg" xmlns:xlink="http://www.w3.org/1999/xlink" x="0px" y="0px"
	 viewBox="0 0 79.2 23.4" style="enable-background:new 0 0 79.2 23.4;" xml:space="preserve">
<polygon points="15.8,10.6 15.8,0.9 13.1,0.9 13.1,0.1 21.8,0.1 21.8,0.9 19.1,0.9 19.1,22.1 21.8,22.1 21.8,22.9 13.1,22.9 
	13.1,22.1 15.8,22.1 15.8,11.6 6,11.6 6,22.1 8.6,22.1 8.6,22.9 0,22.9 0,22.1 2.7,22.1 2.7,0.9 0,0.9 0,0.1 8.6,0.1 8.6,0.9 6,0.9 
	6,10.6 "/>
<path d="M22.7,22.9V22h2.7V8.1h-2.7V7.2H24c1.5,0,3,0,4.4-0.4V22h2.3v0.9H22.7z"/>
<path d="M34.3,8.1h-2.2V7.2h0.8c0.8,0,1.5,0,2.2-0.1c0.8,0,1.5-0.2,2.2-0.3V11h0.1c1.1-2.5,2.7-4.2,5.5-4.2c1.4,0,4.7,0.3,4.7,4V22
	h2.1v0.9h-7.3V22h2.1V11.3c0-2.9-0.9-3.3-2.5-3.3c-2.7,0-4.8,3.7-4.8,6.7V22h2.1v0.9h-7.4V22h2.2V8.1z"/>
<path d="M64.2,18c-0.6,2.6-3.2,4.6-5.5,4.6c-4.3,0-4.8-3.2-4.8-7.1v-1.6h11.2c0-4.3-3.1-7.1-7.1-7.1c-4.7,0-7.8,4.3-7.8,9
	c0,4.4,3.9,7.6,7.9,7.6c3.5,0,6.2-1.7,7-5.4H64.2z M53.9,12.7c0-1,0.2-1.9,0.4-2.6c0.1-0.3,1.1-2.5,3.5-2.5c2,0,3.6,0.9,3.6,3.8v1.3
	H53.9z"/>
<path d="M77.6,7.2v4.4h-0.9c-0.6-2.3-1.9-3.9-4.3-4c-3.2-0.1-3.7,2.4-3.7,2.9c0,1.1,0.3,1.7,6.4,3c3.1,0.6,4.1,2,4.1,4.5
	c0,3.4-2.6,5.4-5.7,5.4c-1.7,0-3.4-0.7-4.6-1.9l-0.9,1.4h-0.9v-5.2h0.9c0.8,2.9,2.7,5,5.6,5c1.8,0,3.8-1.3,3.8-3.4
	c0-1.5-2.2-2.3-5.5-3.1c-2.6-0.6-4.9-1-4.9-4.4c0-1.7,1-4.9,5.3-4.9c1.2,0,2.5,0.5,3.7,1.5l0.7-1.1H77.6z"/>
<rect x="25.3" width="3.3" height="3.3"/>
</svg>
