<?xml version="1.0" encoding="utf-8"?>
<!-- Generator: Adobe Illustrator 20.1.0, SVG Export Plug-In . SVG Version: 6.00 Build 0)  -->
<svg version="1.1" id="Layer_1" xmlns="http://www.w3.org/2000/svg" xmlns:xlink="http://www.w3.org/1999/xlink" x="0px" y="0px"
	 viewBox="0 0 235.9 211.1" style="enable-background:new 0 0 235.9 211.1;" xml:space="preserve">
<style type="text/css">
	.st0{fill:#FFFFFF;}
</style>
<path d="M231.4,50.1L122.5,0.9C121.3,0.3,119.6,0,118,0c-1.7,0-3.3,0.3-4.6,0.9L4.6,50.1C2.1,51.2,0,54.4,0,57.2v96.7
	c0,2.8,2.1,5.9,4.6,7.1l108.9,49.3c1.3,0.6,2.9,0.8,4.6,0.8c1.7,0,3.3-0.3,4.6-0.8L231.4,161c2.5-1.1,4.6-4.3,4.6-7.1V57.2
	C235.9,54.4,233.9,51.2,231.4,50.1"/>
<path class="st0" d="M118,6.9c1.5,0,3,0.3,4,0.7l103.9,47c2,0.9,3.7,3.6,3.7,5.8v90.3c0,2.2-1.7,4.9-3.7,5.8l-103.9,47
	c-1,0.5-2.5,0.7-4,0.7c-1.5,0-3-0.3-4-0.7l-103.9-47c-2-0.9-3.7-3.6-3.7-5.8V60.4c0-2.2,1.7-4.9,3.7-5.8L114,7.6
	C115,7.2,116.5,6.9,118,6.9 M118,5.5c-1.7,0-3.3,0.3-4.6,0.9L9.6,53.3C7,54.5,5,57.6,5,60.4v90.3c0,2.8,2,5.9,4.6,7.1l103.9,47
	c1.3,0.6,2.9,0.9,4.6,0.9c1.7,0,3.3-0.3,4.6-0.9l103.9-47c2.5-1.1,4.6-4.3,4.6-7.1V60.4c0-2.8-2-5.9-4.6-7.1l-103.9-47
	C121.3,5.8,119.6,5.5,118,5.5"/>
<path class="st0" d="M165.2,103.5c2,0,3.6-1.6,3.6-3.6c0-2-1.6-3.6-3.6-3.6c-2,0-3.6,1.6-3.6,3.6
	C161.6,101.9,163.2,103.5,165.2,103.5"/>
<path class="st0" d="M215.9,121.8c-2.2,3.8-5,8-7.7,10.1c-0.8,0.6-1.3,0.4-1.2-0.6c0.2-0.9,0.2-1.9,0.2-3
	c-0.1-3.1-1.1-11.2,0.2-18.7c0.4-1.8-0.1-2.7-1.8-3.4l-0.3-0.1c-1.6-0.6-2.6-0.3-3.3,1.3c-2.7,5.8-14.4,27.1-23.8,27.1
	c-5.3,0-5.1-4.5-4.6-7c0.3-1.2,1-1.8,2.2-1.7c6.6,0.5,11.1-1.3,13.9-7.2c3.4-7,0.5-12.1-5.3-12.1c-7,0-12.5,7.4-15.1,14.7
	c0,0,0,0,0,0c-3.6,6.7-9.1,13.3-12.1,13.3c-1.3,0-2.4-1.1,0.2-7.5l7-17.5c0.6-1.5,0.1-2.3-1.5-2.3h-1.2c-1.8,0-2.7,0.6-3.4,2.3
	l-6,14.8c-3.6,5.7-7.5,10.1-10.1,10.1c-1.3,0-2.4-1.1,0.2-7.5l11.7-29.1c0.6-1.5,0.1-2.3-1.5-2.3h-1.2c-1.8,0-2.7,0.6-3.4,2.3
	l-4.6,11.5c-0.4,0.9-0.9,1-1.5,0.1c-0.7-1.3-2.2-3-5.1-3c-6.5,0-11.1,8.1-13.5,15.5c-2.6,4.3-5.4,6.4-8,6.7
	c-1.1,0.2-1.6-0.5-1.1-1.5c2-4.4,3.2-9.2,3.2-12.5c0-5.6-3.3-8.3-7.6-8.3c-9.1,0-14.8,11.6-16.3,19.7c-1.6,1.5-3.2,2.4-4.8,2.6
	c-1.1,0.2-1.6-0.5-1.1-1.5c2.1-4.4,3.2-9.2,3.2-12.5c0-5.6-3.3-8.3-7.6-8.3c-10.7,0-16.7,16-16.7,23.6c0,5.7,3.3,8.3,7.7,8.3
	c3.7,0,6.9-1.9,9.4-4.9c1-1.1,1.4-1.3,2.9-1.2c2.4,0.2,4.6-0.4,6.7-1.7c0.2,5.3,3.5,7.8,7.7,7.8c3.7,0,6.9-1.9,9.4-4.9
	c1-1.1,1.4-1.3,2.9-1.2c3.2,0.3,6.1-0.9,8.6-3.2c-0.1,1-0.2,1.9-0.2,2.6c0,3.7,1.9,6.6,5.6,6.6c3,0,5.6-1.9,7-3.3
	c0.8-0.8,1.2-0.7,1.7,0.4c0.5,1.3,1.8,2.9,4.9,2.9c3.5,0,6.7-2.3,9.6-5.7c-0.1,4.2,2.2,5.7,5.4,5.7c4.4,0,8.4-3.6,12.1-8.8
	c0,5.8,3.2,8.8,9.1,8.8c13.2,0,22.6-19.3,23.9-21.7c0.4-0.8,0.9-0.6,0.9,0.2c0,3.8,0.2,7.4,0.2,10.1c0,5.5-1.2,7-3.5,7
	c-2.2,0-3-1.8-5.2-0.5c-0.9,0.6-1.1,1.6-0.2,2.3c1.2,1.2,3.5,2.5,6.9,2.5c9.5,0,14.2-7.2,18.5-14.7
	C219.4,121.8,216.9,120.1,215.9,121.8 M175.8,120.5c1.3-3,4.4-9.1,8.2-9.1c2,0,2.3,1.7,0.5,5.4c-1.3,2.9-3.2,5.6-7.5,5.5
	C175.9,122.4,175.4,121.6,175.8,120.5 M83.6,121.6c-0.4,1.3-1.2,2.5-2,3.1c-1.2,0.8-1.7,1.5-2,3.4c-0.2,1.6-0.2,2.6-1.7,4.1
	c-1.1,1.2-2.3,1.9-3.4,1.9c-1.6,0-2.6-1.3-2.6-3.6c0-5.4,5.9-20,11-20c1.3,0,2.4,1,2.4,3.5C85.3,115.8,84.6,118.7,83.6,121.6
	 M110.2,121.6c-0.4,1.3-1.2,2.5-2,3.1c-1.2,0.8-1.7,1.5-2,3.4c-0.2,1.6-0.2,2.6-1.7,4.1c-1.1,1.2-2.3,1.9-3.4,1.9
	c-1.6,0-2.6-1.3-2.6-3.6c0-5.4,5.9-20,11-20c1.3,0,2.4,1,2.4,3.5C111.9,115.8,111.3,118.7,110.2,121.6 M140.3,116.8l-4,9.8
	c-0.3,0.8-1.1,2-1.6,2.7c-1.2,1.6-3.4,3.9-5.6,3.9c-1.3,0-1.9-0.8-1.9-2.4c0-4.6,5.2-19.2,10.7-19.2c1.6,0,2.3,1.2,2.6,2.3
	C140.7,114.7,140.6,116.1,140.3,116.8"/>
<path class="st0" d="M90.7,96.6c0.9-1.2,0.9-2.6-0.8-3.4c-1.1-0.5-2.8-0.4-3.9,0.6c-3.3,3-9.8,6.4-16.8,8.9c-0.3,0.1-0.8,0-0.5-0.8
	c0.3-0.8,10.2-25.1,10.2-25.1c0.6-1.6,0.1-2.4-1.6-2.4h-1.4c-1.9,0-2.9,0.7-3.6,2.4c0,0-10.8,26.8-11.1,27.5c-0.3,0.6-1,1-1.2,1.1
	c-2,0.4-3.9,0.7-5.7,0.8c-1.7,0.1-3.3,0.3-4.9,0.5c-0.3,0-0.7-0.2-0.3-1.3c0.5-1.1,10.4-25.4,11.7-26.9c0.7-0.9,1.3-3.3-1.2-4.2
	c-1.4-0.5-3.3,0.1-6.1,0.1c-27,0.3-29,19.4-15.3,21.7c1.1,0.2,2-0.8,2.3-2.1c0.3-1.2,0-2.2-1.3-2.4C31.6,90.2,35,80.7,50,79.9
	c2.7-0.1,2.1,2,1,4.5c0,0-8.3,20.9-8.8,22.2c-0.6,1.3-1.2,1.2-1.6,1.3c-15.2,2.7-23.2,7.7-23.2,15.5c0,5.2,3,9.8,9.1,9.8
	c11.3,0,17-13.5,19.7-20.4c0.1-0.2,0.2-0.5,0.8-0.5c2-0.2,7.9-0.6,11.1-1.3c0.3-0.1,0.5,0.1,0.1,0.8c-0.3,0.7-3.9,9.6-3.9,9.6
	l-3.2,8l-2.7,6.8c-0.7,1.7-0.6,3,0.6,4.5L50,142c0.9,1.3,1.9,1.2,2.5-0.3l4-10.1l3.3-8.1c0,0,5.2-12.9,5.5-13.7
	c0.4-0.8,0.9-1,1.2-1.1C77.2,105.4,88,100,90.7,96.6 M39.1,114.3c-4.7,10.4-8.5,13-12.1,13.1c-2.2,0.1-4.2-1.1-4.2-4.3
	c0-4.3,6.1-7.5,15.6-9.6C39.3,113.3,39.3,113.8,39.1,114.3"/>
<path class="st0" d="M124.8,58.8c-0.3,0-0.6-0.2-0.6-0.6v-2.1c0-0.2-0.1-0.5-0.2-0.6l-2.7-3c-0.1-0.1-0.4-0.2-0.5-0.2h-5.3
	c-0.2,0-0.4,0.1-0.6,0.2l-3.1,3.1c-0.1,0.1-0.2,0.4-0.2,0.6v2.1c0,0.3-0.2,0.6-0.6,0.6c-0.3,0-0.6-0.2-0.6-0.6v-2.1
	c0-0.5,0.2-1,0.6-1.3l3.1-3.1c0.3-0.3,0.9-0.6,1.3-0.6h5.3c0.5,0,1,0.2,1.3,0.6l2.7,3c0.3,0.3,0.5,0.9,0.5,1.3v2.1
	C125.4,58.5,125.2,58.8,124.8,58.8"/>
<path class="st0" d="M118,41.5c-3.5,0-6.4-2.9-6.4-6.4c0-2.1,2.6-3.5,6.4-3.5c3.7,0,6.4,1.5,6.4,3.5C124.4,38.6,121.5,41.5,118,41.5
	 M118,32.6c-3,0-5.3,1-5.3,2.4c0,2.9,2.4,5.3,5.3,5.3s5.3-2.4,5.3-5.3C123.3,33.7,120.9,32.6,118,32.6"/>
<path class="st0" d="M119.6,47.2c-0.3,0-0.6-0.2-0.6-0.6v-5.5c0-0.3,0.2-0.6,0.6-0.6c0.3,0,0.6,0.2,0.6,0.6v5.5
	C120.2,47,119.9,47.2,119.6,47.2"/>
<path class="st0" d="M116.3,47.2c-0.3,0-0.6-0.2-0.6-0.6v-5.5c0-0.3,0.2-0.6,0.6-0.6c0.3,0,0.6,0.2,0.6,0.6v5.5
	C116.9,47,116.6,47.2,116.3,47.2"/>
<path class="st0" d="M128.8,59.1h-21.7c-0.9,0-1.6-0.3-2.1-0.8c-0.4-0.5-0.6-1.1-0.5-1.8c0.9-6.4,3.7-11.5,7.6-14.1
	c0,0,0.1-0.1,0.1-0.2c0-0.1,0-0.1,0-0.1c-2.2-1.9-3.4-4.4-3.4-7.1c0-5.2,5.1-9.9,9.1-9.9c4,0,9.1,4.6,9.1,9.9c0,2.7-1.2,5.2-3.4,7.1
	c0,0,0,0,0,0.1c0,0.1,0.1,0.2,0.1,0.2c3.9,2.6,6.7,7.8,7.6,14.1c0.1,0.7-0.1,1.4-0.5,1.8C130.4,58.9,129.7,59.1,128.8,59.1 M118,58
	h10.8c0.5,0,1-0.2,1.2-0.4c0.2-0.2,0.3-0.6,0.2-1c-0.8-6.1-3.4-10.9-7.1-13.4c-0.3-0.2-0.6-0.6-0.7-1c0-0.4,0.2-0.8,0.5-1
	c2-1.7,3-3.9,3-6.3c0-4.5-4.5-8.8-8-8.8c-3.5,0-8,4.2-8,8.8c0,2.4,1.1,4.6,3,6.3c0.3,0.2,0.5,0.6,0.5,1c0,0.4-0.3,0.8-0.7,1
	c-3.7,2.4-6.3,7.3-7.1,13.4c-0.1,0.4,0,0.7,0.2,1c0.2,0.3,0.7,0.4,1.2,0.4H118z"/>
<path class="st0" d="M53.6,53.4c-0.4,0-0.7,0.1-1,0.3l-1.1,0.8c-0.2,0.2-0.3,0.5-0.1,0.7l2.7,3.7c0.1,0.1,0.2,0.2,0.4,0.2
	c0.1,0,0.2,0,0.3-0.1c0.2-0.2,0.3-0.5,0.1-0.7l-1-1.3l0.7-0.5c0.4-0.3,0.6-0.7,0.7-1.1c0.1-0.5,0-0.9-0.3-1.3
	C54.7,53.7,54.2,53.4,53.6,53.4 M54.1,55.8l-0.7,0.5l-0.9-1.2l0.7-0.5c0.1-0.1,0.3-0.2,0.5-0.2c0.2,0,0.5,0.1,0.6,0.3
	C54.5,55,54.4,55.5,54.1,55.8"/>
<path class="st0" d="M59.5,49.9c-0.2-0.1-0.4-0.1-0.7-0.1c-0.5,0-1,0.1-1.4,0.4c-0.6,0.4-1,1-1.2,1.8c-0.1,0.7,0,1.5,0.4,2.1
	c0.4,0.6,1,1.1,1.8,1.3c0.2,0.1,0.4,0.1,0.7,0.1c0.5,0,1-0.1,1.4-0.4c0.6-0.4,1-1,1.1-1.7c0.1-0.7,0-1.5-0.4-2.1
	C60.9,50.6,60.3,50.1,59.5,49.9 M60.8,53.1c-0.1,0.5-0.3,0.9-0.7,1.1c-0.4,0.3-0.9,0.3-1.3,0.2c-0.5-0.1-0.9-0.4-1.2-0.8
	c-0.3-0.4-0.4-0.9-0.3-1.4c0.1-0.5,0.3-0.9,0.7-1.1c0.3-0.2,0.6-0.3,0.9-0.3c0.1,0,0.3,0,0.4,0.1c0.5,0.1,0.9,0.4,1.2,0.8
	C60.7,52.2,60.8,52.7,60.8,53.1"/>
<path class="st0" d="M67.6,44.7C67.6,44.7,67.6,44.7,67.6,44.7c-0.3,0-0.5,0.3-0.5,0.5l0.4,3.8l-1.9-1.6c-0.2-0.1-0.4-0.1-0.5,0
	c-0.2,0.1-0.3,0.3-0.3,0.5l0.2,2.5l-3-2.4c-0.1-0.1-0.2-0.1-0.3-0.1c-0.1,0-0.3,0.1-0.4,0.2c-0.1,0.1-0.1,0.2-0.1,0.3
	c0,0.1,0.1,0.2,0.2,0.3l3.9,3.1c0,0,0,0,0,0c0,0,0,0,0,0l0,0l0,0c0,0,0,0,0,0c0,0,0,0,0,0c0,0,0,0,0,0l0,0l0,0c0,0,0,0,0,0
	c0,0,0,0,0,0l0,0c0,0,0.1,0,0.1,0l0,0l0,0l0,0c0,0,0,0,0,0l0,0l0,0c0,0,0.1,0,0.1,0c0,0,0,0,0.1,0l0,0c0,0,0,0,0,0l0,0l0,0
	c0,0,0,0,0,0c0,0,0,0,0,0l0,0l0,0c0,0,0,0,0,0l0,0l0,0c0,0,0,0,0,0l0,0l0,0v0c0,0,0-0.1,0-0.1l-0.2-2.5l2,1.6c0,0,0,0,0.1,0
	c0,0,0,0,0,0l0,0l0,0c0,0,0,0,0,0c0,0,0,0,0,0l0,0c0,0,0,0,0,0c0,0,0,0,0,0l0,0c0,0,0.1,0,0.1,0l0,0l0,0c0,0,0,0,0,0l0,0l0,0
	c0,0,0.1,0,0.1,0c0,0,0,0,0.1,0l0,0c0,0,0,0,0,0l0,0l0,0c0,0,0,0,0-0.1c0,0,0,0,0,0l0,0l0,0c0,0,0,0,0,0l0,0l0,0c0,0,0,0,0,0
	c0,0,0,0,0,0l0,0c0,0,0-0.1,0-0.1l-0.5-4.9C68.1,44.9,67.9,44.7,67.6,44.7"/>
<path class="st0" d="M73.9,46.9c-0.1,0-0.1,0-0.2,0l-1.9,0.9l-0.6-1.2l1.6-0.7c0.1-0.1,0.2-0.1,0.2-0.3c0-0.1,0-0.3,0-0.4
	c-0.1-0.2-0.3-0.3-0.4-0.3c-0.1,0-0.1,0-0.2,0l-1.6,0.7l-0.5-1.2l1.9-0.9c0.1-0.1,0.2-0.1,0.2-0.3c0-0.1,0-0.3,0-0.4
	c-0.1-0.2-0.2-0.3-0.4-0.3c-0.1,0-0.1,0-0.2,0l-2.3,1l0,0c-0.1,0.1-0.2,0.1-0.3,0.3c0,0.1,0,0.2,0,0.4l1.9,4.2
	c0.1,0.2,0.2,0.3,0.4,0.3c0.1,0,0.1,0,0.2,0l2.3-1.1c0.2-0.1,0.3-0.4,0.2-0.6C74.2,47,74.1,46.9,73.9,46.9"/>
<path class="st0" d="M78.8,44.8L78.8,44.8c0-0.1-0.1-0.2-0.2-0.4c-0.1-0.3-0.3-0.5-0.6-0.7c-0.1-0.1-0.2-0.1-0.3-0.2
	c0.2-0.4,0.3-0.9,0.1-1.4C77.6,41.4,77,41,76.2,41c-0.2,0-0.4,0-0.6,0.1l-1.3,0.5c-0.2,0.1-0.4,0.4-0.3,0.6l1.7,4.3
	c0.1,0.2,0.2,0.3,0.4,0.3c0.1,0,0.1,0,0.2,0c0.2-0.1,0.4-0.4,0.3-0.6L76,44.7l0.8-0.3c0,0,0.1,0,0.2,0c0.1,0,0.2,0,0.3,0
	c0.1,0,0.2,0.1,0.3,0.1c0.1,0.1,0.1,0.1,0.2,0.3c0.2,0.4,0.3,0.6,0.5,0.8c0.1,0.1,0.2,0.1,0.4,0.2c0,0,0.1,0,0.1,0
	c0.1,0,0.2,0,0.2,0c0.1,0,0.1-0.1,0.2-0.1c0.1-0.1,0.2-0.2,0.2-0.3c0-0.1,0-0.2-0.1-0.3C79.1,44.8,79,44.8,78.8,44.8 M76.9,43
	c-0.1,0.2-0.2,0.3-0.4,0.4l-0.8,0.3l-0.6-1.4L76,42c0.1,0,0.2-0.1,0.3-0.1c0.3,0,0.6,0.2,0.7,0.5C77,42.6,77,42.8,76.9,43"/>
<path class="st0" d="M83.6,43.2c0,0-0.1,0-0.1,0l-2,0.7l-0.4-1.3l1.7-0.6c0.1,0,0.2-0.1,0.3-0.2c0.1-0.1,0.1-0.2,0-0.4
	c-0.1-0.2-0.3-0.3-0.5-0.3c0,0-0.1,0-0.1,0l-1.7,0.6l-0.4-1.3l2-0.7c0.1,0,0.2-0.1,0.3-0.2c0.1-0.1,0.1-0.2,0-0.4
	c-0.1-0.2-0.2-0.3-0.5-0.3c-0.1,0-0.1,0-0.1,0l-2.4,0.8l0,0c-0.1,0-0.2,0.1-0.3,0.2c-0.1,0.1-0.1,0.2,0,0.4l1.5,4.4
	c0.1,0.2,0.2,0.3,0.5,0.3c0.1,0,0.1,0,0.2,0l2.4-0.8c0.1,0,0.2-0.1,0.3-0.2c0.1-0.1,0.1-0.2,0-0.4C84,43.3,83.8,43.2,83.6,43.2"/>
<path class="st0" d="M86.2,37.7c-0.3,0-0.5,0-0.8,0.1L84.6,38c-0.1,0-0.2,0.1-0.3,0.2c-0.1,0.1-0.1,0.2,0,0.4l1.3,4.4
	c0.1,0.2,0.2,0.3,0.5,0.3c0,0,0.1,0,0.1,0l0.9-0.2c1.5-0.4,2.3-2,1.9-3.4C88.5,38.5,87.4,37.7,86.2,37.7 M86.7,42.2l-0.4,0.1l-1-3.5
	l0.4-0.1c0.2,0,0.3-0.1,0.5-0.1c0.8,0,1.5,0.5,1.7,1.3C88.2,40.9,87.7,41.9,86.7,42.2"/>
<path class="st0" d="M97.8,37.4c0.1-0.3,0.2-0.6,0.1-0.9c-0.1-0.7-0.8-1.2-1.5-1.2c-0.1,0-0.2,0-0.3,0L95,35.5
	c-0.3,0-0.4,0.3-0.4,0.6l0.8,4.5c0,0.2,0.2,0.4,0.5,0.4c0,0,0.1,0,0.1,0l1.4-0.3c0.9-0.2,1.5-1.1,1.4-2
	C98.7,38.1,98.3,37.6,97.8,37.4 M95.9,37.4l-0.2-1.1l0.6-0.1c0.3-0.1,0.6,0.1,0.7,0.5c0.1,0.3-0.1,0.6-0.5,0.7L95.9,37.4z
	 M96.3,39.9L96,38.4l0.9-0.2c0,0,0.1,0,0.1,0c0.4,0,0.7,0.3,0.7,0.6c0.1,0.4-0.2,0.8-0.6,0.9L96.3,39.9z"/>
<path class="st0" d="M103.4,34.3c-0.1,0-0.1-0.1-0.2-0.1c-0.2,0-0.3,0.1-0.4,0.3l-1,1.9l-1.5-1.6c-0.1-0.1-0.2-0.1-0.3-0.1
	c-0.1,0-0.2,0-0.3,0.1c-0.1,0.1-0.1,0.2-0.1,0.3c0,0.1,0.1,0.2,0.1,0.3l1.9,1.9l0.3,2.1c0,0.2,0.2,0.4,0.5,0.4c0,0,0,0,0.1,0
	c0.1,0,0.2-0.1,0.3-0.2c0.1-0.1,0.1-0.2,0.1-0.4l-0.3-2.1l1.3-2.4C103.7,34.7,103.6,34.4,103.4,34.3"/>
<path class="st0" d="M135.4,34.5l-1.4-0.2c-0.3,0-0.5,0.1-0.5,0.4l-0.7,4.6c0,0.3,0.1,0.5,0.4,0.5c0,0,0,0,0.1,0
	c0.2,0,0.4-0.2,0.5-0.4l0.2-1.6l0.9,0.1c0.1,0,0.2,0,0.2,0c0.9,0,1.6-0.6,1.7-1.5c0.1-0.5-0.1-0.9-0.3-1.3
	C136.3,34.8,135.9,34.6,135.4,34.5 M135.9,36.3c-0.1,0.4-0.4,0.6-0.7,0.6c0,0-0.1,0-0.1,0l-0.9-0.1l0.2-1.5l0.9,0.1
	C135.7,35.5,136,35.9,135.9,36.3"/>
<path class="st0" d="M142.6,35.8C142.5,35.8,142.5,35.8,142.6,35.8c-0.3,0-0.5,0.1-0.6,0.4l-0.5,2.7c-0.1,0.6-0.7,1.1-1.3,1.1
	c-0.1,0-0.2,0-0.3,0c-0.7-0.1-1.2-0.8-1.1-1.6l0.5-2.7c0.1-0.3-0.1-0.5-0.4-0.6c0,0-0.1,0-0.1,0c-0.2,0-0.4,0.2-0.5,0.4l-0.5,2.7
	c-0.2,1.2,0.6,2.5,1.8,2.7c0.1,0,0.3,0,0.4,0c1.1,0,2-0.8,2.3-1.9l0.5-2.7C143,36.1,142.8,35.8,142.6,35.8"/>
<path class="st0" d="M148.2,37.6c-0.3-0.4-0.8-0.8-1.5-1c-0.5-0.1-1-0.1-1.4,0.1c-0.5,0.2-0.8,0.6-0.9,1c-0.1,0.2-0.1,0.5,0,0.7
	c0.1,0.3,0.3,0.6,0.6,0.8c0.2,0.2,0.5,0.4,0.9,0.5l0,0c0.4,0.2,0.8,0.4,0.9,0.6c0.1,0.1,0.1,0.2,0.2,0.3c0,0.1,0,0.1,0,0.2
	c0,0.2-0.2,0.3-0.4,0.4c-0.3,0.1-0.6,0.1-1,0c-0.5-0.1-1-0.6-1.3-0.9c-0.1-0.2-0.4-0.2-0.6-0.1c-0.2,0.2-0.2,0.4-0.1,0.6
	c0.4,0.5,0.9,1,1.8,1.3c0.2,0.1,0.4,0.1,0.7,0.1c0.3,0,0.6-0.1,0.9-0.2c0.5-0.2,0.9-0.6,1-1c0.1-0.2,0.1-0.5,0-0.7
	c-0.1-0.3-0.3-0.6-0.6-0.8c-0.2-0.2-0.6-0.4-1-0.6l0,0c-0.4-0.2-0.7-0.4-0.8-0.6c-0.1-0.1-0.1-0.2-0.1-0.2c0-0.1,0-0.1,0-0.2
	c0-0.2,0.2-0.3,0.4-0.4c0.2-0.1,0.6-0.1,0.9,0c0.4,0.1,0.7,0.4,1.1,0.8c0.1,0.1,0.2,0.1,0.3,0.1c0.1,0,0.2,0,0.3-0.1
	C148.3,38.1,148.3,37.8,148.2,37.6L148.2,37.6z"/>
<path class="st0" d="M153.8,38.8c0,0-0.1,0-0.1,0c-0.2,0-0.4,0.1-0.5,0.3l-0.5,1.7l-1.8-0.6l0.5-1.7c0.1-0.3-0.1-0.5-0.3-0.6
	c0,0-0.1,0-0.1,0c-0.2,0-0.4,0.1-0.5,0.3l-1.4,4.4c-0.1,0.3,0.1,0.5,0.3,0.6c0,0,0.1,0,0.1,0c0.2,0,0.4-0.1,0.5-0.3l0.5-1.7l1.8,0.6
	l-0.5,1.7c0,0.1,0,0.3,0,0.4c0.1,0.1,0.2,0.2,0.3,0.2c0,0,0.1,0,0.1,0c0.2,0,0.4-0.1,0.5-0.3l1.4-4.4c0-0.1,0-0.3,0-0.4
	C154,38.9,153.9,38.8,153.8,38.8"/>
<path class="st0" d="M160.2,41.1c-0.1-0.1-0.3,0-0.4,0.1l-2.1,1.4l-0.7-2.5c0-0.1-0.1-0.3-0.3-0.3l0,0c-0.1,0-0.1,0-0.2,0
	c-0.2,0-0.4,0.1-0.5,0.3l-1.6,4.3c0,0.1,0,0.2,0,0.4c0.1,0.1,0.1,0.2,0.3,0.2c0.1,0,0.1,0,0.2,0c0.2,0,0.4-0.1,0.5-0.3l1.1-2.9
	l0.5,1.7c0,0.2,0.2,0.3,0.3,0.3l0,0c0.1,0.1,0.3,0,0.4-0.1l1.5-1l-1.1,2.9c0,0.1,0,0.3,0,0.4c0.1,0.1,0.1,0.2,0.3,0.2
	c0.1,0,0.1,0,0.2,0c0.2,0,0.4-0.1,0.5-0.3l1.6-4.3C160.6,41.4,160.5,41.2,160.2,41.1"/>
<path class="st0" d="M165.5,43.3l-2.3-1l0,0c-0.1,0-0.1,0-0.2,0c-0.2,0-0.4,0.1-0.4,0.3l-1.9,4.2c-0.1,0.1-0.1,0.2,0,0.4
	c0,0.1,0.1,0.2,0.3,0.3l0,0c0,0,0,0,0,0l2.3,1c0.1,0,0.1,0,0.2,0c0.2,0,0.4-0.1,0.4-0.3c0.1-0.1,0.1-0.3,0-0.4
	c0-0.1-0.1-0.2-0.2-0.3l-1.9-0.8l0.5-1.2l1.6,0.7c0.1,0,0.1,0,0.2,0c0.2,0,0.4-0.1,0.4-0.3c0.1-0.2,0-0.5-0.2-0.6l-1.6-0.7l0.5-1.2
	l1.9,0.8c0.1,0,0.1,0,0.2,0c0.2,0,0.4-0.1,0.5-0.3C165.8,43.7,165.7,43.4,165.5,43.3"/>
<path class="st0" d="M170.2,46.6c0.2,0,0.4-0.1,0.4-0.3c0.1-0.1,0.1-0.2,0-0.4c0-0.1-0.1-0.2-0.2-0.3l-3-1.5c-0.1,0-0.1-0.1-0.2-0.1
	c-0.2,0-0.3,0.1-0.4,0.3c-0.1,0.2,0,0.5,0.2,0.6l1.1,0.5l-1.8,3.7c-0.1,0.2,0,0.5,0.2,0.6c0.1,0,0.1,0.1,0.2,0.1
	c0.2,0,0.3-0.1,0.4-0.3l1.8-3.7l1.1,0.5C170,46.6,170.1,46.6,170.2,46.6"/>
<path class="st0" d="M175.2,48.5c0-0.1-0.1-0.2-0.2-0.3c-0.1,0-0.2-0.1-0.2-0.1c-0.2,0-0.3,0.1-0.4,0.2l-0.9,1.6l-1.7-0.9l0.9-1.6
	c0.1-0.1,0.1-0.2,0-0.4c0-0.1-0.1-0.2-0.2-0.3c-0.1,0-0.2-0.1-0.2-0.1c-0.2,0-0.3,0.1-0.4,0.2l-2.3,4c-0.1,0.1-0.1,0.2,0,0.4
	c0,0.1,0.1,0.2,0.2,0.3c0.1,0,0.2,0.1,0.2,0.1c0.2,0,0.3-0.1,0.4-0.2l0.9-1.6l1.7,0.9l-0.9,1.6c-0.1,0.1-0.1,0.2,0,0.4
	c0,0.1,0.1,0.2,0.2,0.3c0.1,0,0.2,0.1,0.2,0.1c0.2,0,0.3-0.1,0.4-0.2l2.3-4C175.2,48.8,175.2,48.7,175.2,48.5"/>
<path class="st0" d="M180.4,52.5c-0.1-0.7-0.5-1.4-1.1-1.8c-0.4-0.3-0.9-0.4-1.5-0.4c-0.2,0-0.4,0-0.6,0.1c-0.7,0.2-1.3,0.6-1.8,1.2
	c-0.4,0.6-0.6,1.4-0.4,2.1c0.1,0.7,0.5,1.4,1.2,1.8c0.4,0.3,0.9,0.4,1.4,0.4c0.2,0,0.4,0,0.6-0.1c0.7-0.2,1.4-0.6,1.8-1.2
	C180.3,54,180.5,53.2,180.4,52.5 M179.1,54.1c-0.3,0.4-0.7,0.7-1.2,0.8c-0.5,0.1-0.9,0-1.3-0.2c-0.4-0.3-0.6-0.6-0.7-1.1
	c-0.1-0.5,0-1,0.3-1.4c0.3-0.4,0.7-0.7,1.2-0.8c0.1,0,0.3,0,0.4,0c0.3,0,0.6,0.1,0.9,0.3c0.4,0.2,0.6,0.6,0.7,1.1
	C179.5,53.1,179.4,53.6,179.1,54.1"/>
<path class="st0" d="M185,56.1c-0.1-0.7-0.5-1.4-1.1-1.8l-0.7-0.6c-0.1-0.1-0.2-0.1-0.3-0.1c-0.1,0-0.3,0.1-0.4,0.2l-2.8,3.7
	c-0.1,0.1-0.1,0.2-0.1,0.4c0,0.1,0.1,0.2,0.2,0.3l0.7,0.6c0.5,0.4,1.1,0.6,1.7,0.6c0.9,0,1.7-0.4,2.2-1.1
	C184.9,57.5,185.1,56.8,185,56.1 M183.7,57.5c-0.3,0.5-0.9,0.7-1.4,0.7c-0.4,0-0.8-0.1-1.1-0.4l-0.3-0.3l2.2-2.9l0.3,0.3
	C184.2,55.6,184.3,56.7,183.7,57.5"/>
<path class="st0" d="M52.5,160.8v-6.1c0-0.3,0.2-0.6,0.6-0.6h0h0h3.4c0.3,0,0.6,0.3,0.6,0.6c0,0.3-0.3,0.6-0.6,0.6h-2.8v1.9h2.4
	c0.3,0,0.6,0.3,0.6,0.6c0,0.3-0.3,0.6-0.6,0.6h-2.4v2.5c0,0.3-0.3,0.6-0.6,0.6C52.8,161.4,52.5,161.1,52.5,160.8"/>
<path class="st0" d="M66.4,155c0.6,0.7,1,1.6,1,2.6c0,1-0.4,2-1,2.6c-0.6,0.7-1.5,1.1-2.5,1.1c-1,0-1.9-0.4-2.5-1.1
	c-0.6-0.7-1-1.6-1-2.6c0-1,0.4-1.9,1-2.6c0.6-0.7,1.5-1.1,2.5-1.1C64.9,153.9,65.8,154.3,66.4,155 M66.3,157.7
	c0-0.7-0.3-1.4-0.7-1.8c-0.4-0.5-1-0.7-1.6-0.7c-0.7,0-1.2,0.3-1.7,0.7c-0.4,0.5-0.7,1.1-0.7,1.8c0,0.7,0.3,1.4,0.7,1.8
	c0.4,0.5,1,0.7,1.7,0.7c0.6,0,1.2-0.3,1.6-0.7C66,159,66.3,158.4,66.3,157.7"/>
<path class="st0" d="M75.9,160.5c0.1,0.3-0.1,0.6-0.4,0.7c0,0-0.1,0-0.2,0h0c-0.1,0-0.3,0-0.4-0.1c-0.1-0.1-0.2-0.2-0.3-0.4
	c-0.1-0.3-0.2-0.7-0.2-1.2c0-0.2-0.1-0.3-0.1-0.4c-0.1-0.1-0.2-0.2-0.3-0.3c-0.2-0.1-0.5-0.2-0.6-0.2h-1.2v2.3
	c0,0.3-0.3,0.6-0.6,0.6c-0.3,0-0.6-0.3-0.6-0.6v-6.1c0-0.3,0.2-0.6,0.6-0.6h0h1.8c1.2,0,2.2,1,2.2,2.2c0,0.7-0.3,1.3-0.8,1.7
	c0.1,0.1,0.3,0.2,0.4,0.4c0.2,0.3,0.3,0.7,0.3,1.1c0,0.3,0,0.5,0,0.6C75.7,160.2,75.8,160.4,75.9,160.5 M74.4,156.4
	c0-0.6-0.5-1.1-1.1-1.1h-1.3v2.1h1.3C74,157.4,74.4,156.9,74.4,156.4"/>
<path class="st0" d="M90,155.3h-1.7v5.6c0,0.3-0.2,0.6-0.6,0.6c-0.3,0-0.6-0.2-0.6-0.6v-5.6h-1.6c-0.3,0-0.6-0.3-0.6-0.6
	c0-0.3,0.2-0.6,0.6-0.6H90c0.3,0,0.6,0.2,0.6,0.6C90.6,155,90.3,155.3,90,155.3"/>
<path class="st0" d="M94,160.8v-6.1c0-0.3,0.2-0.6,0.6-0.6c0.3,0,0.6,0.2,0.6,0.6v2.5h2.7v-2.5c0-0.3,0.2-0.6,0.6-0.6
	c0.3,0,0.6,0.2,0.6,0.6v6.1c0,0.3-0.3,0.6-0.6,0.6c-0.3,0-0.6-0.2-0.6-0.6v-2.5h-2.7v2.5c0,0.3-0.3,0.6-0.6,0.6
	C94.3,161.4,94,161.2,94,160.8"/>
<path class="st0" d="M102.9,160.8v-6.1c0-0.3,0.2-0.6,0.6-0.6h0h0h3.4c0.3,0,0.6,0.2,0.6,0.6c0,0.3-0.3,0.6-0.6,0.6h-2.8v1.9h2.4
	c0.3,0,0.6,0.3,0.6,0.6c0,0.3-0.3,0.6-0.6,0.6h-2.4v1.9h2.8c0.3,0,0.6,0.3,0.6,0.6c0,0.3-0.3,0.6-0.6,0.6h-3.4c0,0,0,0,0,0l0,0
	C103.2,161.4,102.9,161.1,102.9,160.8"/>
<path class="st0" d="M116.6,160.8v-6.1c0-0.3,0.2-0.6,0.6-0.6c0.3,0,0.6,0.2,0.6,0.6v2.5h2.7v-2.5c0-0.3,0.2-0.6,0.6-0.6
	s0.6,0.2,0.6,0.6v6.1c0,0.3-0.3,0.6-0.6,0.6s-0.6-0.2-0.6-0.6v-2.5h-2.7v2.5c0,0.3-0.3,0.6-0.6,0.6
	C116.8,161.4,116.6,161.2,116.6,160.8"/>
<path class="st0" d="M131,155c0.6,0.7,1.1,1.6,1.1,2.6c0,1-0.4,2-1.1,2.6c-0.6,0.7-1.5,1.1-2.5,1.1c-1,0-1.9-0.4-2.5-1.1
	c-0.6-0.7-1-1.6-1-2.6c0-1,0.4-1.9,1-2.6c0.6-0.7,1.5-1.1,2.5-1.1C129.4,153.9,130.3,154.3,131,155 M130.8,157.7
	c0-0.7-0.3-1.4-0.7-1.8c-0.4-0.5-1-0.7-1.6-0.7c-0.7,0-1.2,0.3-1.7,0.7c-0.4,0.5-0.7,1.1-0.7,1.8c0,0.7,0.3,1.4,0.7,1.8
	c0.4,0.5,1,0.7,1.7,0.7c0.6,0,1.2-0.3,1.6-0.7C130.5,159,130.8,158.4,130.8,157.7"/>
<path class="st0" d="M141.4,154.7v6.1c0,0.3-0.3,0.6-0.6,0.6c-0.3,0-0.6-0.3-0.6-0.6v-4.4l-1.5,2.1c-0.1,0.2-0.3,0.2-0.5,0.2h0h0
	c-0.2,0-0.4-0.1-0.5-0.2l-1.5-2.1v4.4c0,0.3-0.3,0.6-0.6,0.6c-0.3,0-0.6-0.3-0.6-0.6v-6.1c0-0.3,0.3-0.6,0.6-0.6h0
	c0.2,0,0.4,0.1,0.5,0.2l2.1,2.9l2.1-2.9c0.1-0.2,0.3-0.2,0.5-0.2h0C141.1,154.1,141.4,154.4,141.4,154.7"/>
<path class="st0" d="M145.4,160.8v-6.1c0-0.3,0.2-0.6,0.6-0.6h0h0h3.4c0.3,0,0.6,0.2,0.6,0.6c0,0.3-0.3,0.6-0.6,0.6h-2.8v1.9h2.4
	c0.3,0,0.6,0.3,0.6,0.6c0,0.3-0.3,0.6-0.6,0.6h-2.4v1.9h2.8c0.3,0,0.6,0.3,0.6,0.6c0,0.3-0.3,0.6-0.6,0.6H146c0,0,0,0,0,0l0,0
	C145.7,161.4,145.4,161.1,145.4,160.8"/>
<path class="st0" d="M153.8,160.8v-6.1c0-0.3,0.2-0.6,0.6-0.6c0.3,0,0.6,0.3,0.6,0.6v5.5h2.8c0.3,0,0.6,0.3,0.6,0.6
	c0,0.3-0.3,0.6-0.6,0.6h-3.4h0h0C154.1,161.4,153.8,161.1,153.8,160.8"/>
<path class="st0" d="M161.3,160.8v-6.1c0-0.3,0.2-0.6,0.6-0.6h0h0h3.4c0.3,0,0.6,0.2,0.6,0.6c0,0.3-0.3,0.6-0.6,0.6h-2.8v1.9h2.4
	c0.3,0,0.6,0.3,0.6,0.6c0,0.3-0.3,0.6-0.6,0.6h-2.4v1.9h2.8c0.3,0,0.6,0.3,0.6,0.6c0,0.3-0.3,0.6-0.6,0.6h-3.4c0,0,0,0,0,0l0,0
	C161.6,161.4,161.3,161.1,161.3,160.8"/>
<path class="st0" d="M169.2,159.6c0.2-0.2,0.5-0.3,0.8-0.1c0.5,0.4,1.2,0.8,2,0.8c0.5,0,1-0.2,1.3-0.4c0.3-0.2,0.4-0.5,0.4-0.7
	c0-0.1,0-0.2-0.1-0.3c-0.1-0.1-0.2-0.2-0.3-0.3c-0.3-0.2-0.8-0.4-1.4-0.5h0c-0.5-0.1-0.9-0.2-1.3-0.4c-0.4-0.2-0.7-0.4-1-0.8
	c-0.2-0.2-0.2-0.5-0.2-0.9c0-0.6,0.4-1.2,0.8-1.5c0.5-0.4,1.1-0.6,1.8-0.6c1,0,1.7,0.5,2.3,0.8c0.2,0.2,0.3,0.5,0.1,0.7
	c-0.2,0.2-0.5,0.3-0.7,0.2c-0.5-0.4-1-0.7-1.7-0.7c-0.5,0-0.9,0.1-1.2,0.4c-0.3,0.2-0.4,0.4-0.4,0.7c0,0.1,0,0.2,0.1,0.3
	c0.1,0.1,0.1,0.2,0.3,0.3c0.3,0.2,0.7,0.4,1.3,0.5h0c0.5,0.1,1,0.2,1.4,0.4c0.4,0.2,0.8,0.5,1,0.9c0.2,0.2,0.2,0.6,0.2,0.9
	c0,0.7-0.4,1.2-0.9,1.6c-0.5,0.4-1.2,0.6-1.9,0.6c-1.1,0-2.1-0.6-2.7-1C169.1,160.2,169.1,159.8,169.2,159.6"/>
<path class="st0" d="M177.8,159.6c0.2-0.2,0.5-0.3,0.8-0.1c0.5,0.4,1.2,0.8,2,0.8c0.5,0,1-0.2,1.3-0.4c0.3-0.2,0.4-0.5,0.4-0.7
	c0-0.1,0-0.2-0.1-0.3c-0.1-0.1-0.2-0.2-0.3-0.3c-0.3-0.2-0.8-0.4-1.4-0.5h0c-0.5-0.1-0.9-0.2-1.3-0.4c-0.4-0.2-0.7-0.4-1-0.8
	c-0.2-0.2-0.2-0.5-0.2-0.9c0-0.6,0.4-1.2,0.8-1.5c0.5-0.4,1.1-0.6,1.8-0.6c1,0,1.7,0.5,2.3,0.8c0.2,0.2,0.3,0.5,0.1,0.7
	c-0.2,0.2-0.5,0.3-0.7,0.2c-0.5-0.4-1-0.7-1.7-0.7c-0.5,0-0.9,0.1-1.2,0.4c-0.3,0.2-0.4,0.4-0.4,0.7c0,0.1,0,0.2,0.1,0.3
	c0.1,0.1,0.1,0.2,0.3,0.3c0.3,0.2,0.7,0.4,1.3,0.5h0c0.5,0.1,1,0.2,1.4,0.4c0.4,0.2,0.8,0.5,1,0.9c0.2,0.2,0.2,0.6,0.2,0.9
	c0,0.7-0.4,1.2-0.9,1.6c-0.5,0.4-1.2,0.6-1.9,0.6c-1.1,0-2.1-0.6-2.7-1C177.7,160.2,177.7,159.8,177.8,159.6"/>
<path class="st0" d="M47.1,157.8c0,0.8-0.6,1.4-1.4,1.4c-0.8,0-1.4-0.6-1.4-1.4c0-0.8,0.6-1.4,1.4-1.4
	C46.5,156.4,47.1,157,47.1,157.8"/>
<path class="st0" d="M191.5,157.8c0,0.8-0.6,1.4-1.4,1.4c-0.8,0-1.4-0.6-1.4-1.4c0-0.8,0.6-1.4,1.4-1.4
	C190.9,156.4,191.5,157,191.5,157.8"/>
</svg>
