<?xml version="1.0" encoding="utf-8"?>
<!-- Generator: Adobe Illustrator 20.1.0, SVG Export Plug-In . SVG Version: 6.00 Build 0)  -->
<svg version="1.1" id="Layer_1" xmlns="http://www.w3.org/2000/svg" xmlns:xlink="http://www.w3.org/1999/xlink" x="0px" y="0px"
	 viewBox="0 0 838.5 235.4" style="enable-background:new 0 0 838.5 235.4;" xml:space="preserve">
<style type="text/css">
	.st0{fill:#FEFEFE;}
	.st1{fill:#FDFDFD;}
</style>
<g>
	<path d="M77.1,95c8.5-8.5,12.9-17.8,17.2-27.2c6-13.3,12.2-26.5,18.2-39.8c2.6-5.8,1.4-7.6-4.9-7.6c-22,0.1-19.4-2.1-28.4,17.3
		C73.1,50.8,67,64,61,77.1c-2.2,4.9-4.2,9.8-3.7,15.3c0.2,2-0.5,2.7-2.4,2.7C36.6,95,18.3,95,0,95c17.4-24,26.3-51.9,39.2-77.8
		c2.3-4.6,4-9.5,3.1-14.9C42,0.5,42.9,0,44.5,0C60.4,0,76.2,0,92,0c4.5,4.1,9.1,0.1,13.6,0.1c17.5,0,35-0.3,52.5,0.2
		c4.6,0.1,8.1,1.7,10.1,7C173.9-0.8,182,0,190,0c10.3,0.1,20.7-0.3,31,0.4c15,1.1,23.2,13.5,18.4,28c-4.4,13.1-11.3,25.1-16.7,37.8
		c-3.8,8.8-9.5,16.9-8.6,27.2c0.2,1.8-1.3,1.6-2.4,1.6c-18.3,0-36.6,0-55.5,0c15.4-18.8,22-41.6,32.7-62.3c0.8-1.5,1.4-3,2-4.6
		c2.1-5.6,0.9-7.5-5.3-7.8c-2-0.1-4,0.2-6-0.1c-10.8-1.9-16.4,3.4-20.3,13c-6,14.6-13,28.7-19.6,43.1c-2.4,5.2-4.5,10.4-3.8,16.3
		c0.2,1.7-0.2,2.4-2,2.4C115.3,95,96.9,95,77.1,95z"/>
	<path d="M232.2,194.7c-4.3,10-9.1,18.5-12.3,27.8c-0.7,2-1.3,4.1-1.6,6.3c-0.9,6.6-0.8,6.6-7.7,6.6c-13.5,0-27,0-40.5,0
		c-5.7,0-5.7,0-3.2-5.5c16-34.7,32-69.3,48-104c2.4-5.3,4.8-10.7,4.1-16.7c-0.2-2.2,0.7-2.5,2.5-2.5c15.3,0,30.7,0,46,0
		c0.9,0,1.9-0.5,2.5,0.8c1.2,2.6,1.2,2.4,4,1.3c2.5-0.9,5.1-1.9,7.7-1.9c13.5-0.2,27-1.2,40.4,0.5c13,1.6,19.6,11.9,16,24.5
		c-2.1,7.4-5.9,14.1-9.1,21c-4.2,9.2-8.5,18.4-12.8,27.5c-6.5,13.7-17.3,20.7-32.4,20.9c-13.3,0.2-26.7,0.1-40,0
		C239.2,201.5,235,200.3,232.2,194.7z"/>
	<path d="M516.9,25.2c-6.7-3.1-13.3-3.7-20-3.7c-15.7,0.1-31.3,0-47,0c-1.7,0-3.4,0-4.9,0.4c-1.7,0.4-3.2,1.6-3.1,3.5
		c0.1,2.4,2.3,1.9,3.9,1.9c14,0,28-0.1,42,0.1c10.5,0.1,17.2,6,17.9,15.1c0.3,3.6-0.6,7-2,10.2c-3.7,8.1-7.3,16.4-11.6,24.3
		c-6.3,11.5-16.3,17.8-29.4,18.7c-24.1,1.6-48.3,0.4-72.4,0.7c-8,0.1-16-0.1-24,0.1c-2.6,0-3.7-0.3-2.6-3.3c2-5.8,3.7-11.7,5.4-17.6
		c0.5-1.7,0.9-2.7,3-2c10,3.4,20.4,2.1,30.7,2.5c10,0.4,20,0.1,30,0.1c2.2,0,4.4,0,6.3-1.1c2-1.2,3.5-3.1,2.9-5.3
		c-0.5-2.1-2.8-1-4.3-1c-13.1-0.4-26.3,0.8-39.4-0.8c-12.1-1.5-18.4-10.5-14.5-22.1c3.9-11.6,9-22.9,16.5-32.8
		c6-8,14.5-11.2,24-11.3c31.8-0.3,63.6-0.2,95.5-0.4c2.8,0,3,1.1,2.5,3.2C520.3,11.3,518.6,18.1,516.9,25.2z"/>
	<path d="M606.5,1.4c15.7,0,31.3,0.1,47-0.1c3.5,0,4.3,0.9,3.4,4.2c-1.6,5.6-2.9,11.3-4.3,16.9c-0.4,1.7-0.7,3.1-3.1,2
		c-5.7-2.6-11.9-2.8-18.1-2.8c-15.5,0-31,0-46.5,0c-1.3,0-2.7-0.1-4,0.1c-2.1,0.3-4.1,1.4-4.1,3.6c0,2.7,2.6,2,4.2,2
		c13.7,0.1,27.3-0.1,41,0.1c10.9,0.1,17.8,5.7,18.5,15c0.3,3.9-0.8,7.6-2.4,11.1c-3.5,7.5-6.8,15.2-10.7,22.5
		c-6.3,11.9-16.3,18.7-29.8,19.6c-24.6,1.7-49.3,0.4-73.9,0.7c-7.5,0.1-15,0-22.5,0c-2.4,0-3.8-0.1-2.8-3.2c2-5.8,3.7-11.7,5.4-17.6
		c0.5-1.5,0.7-3,2.9-2.1c7.7,3,15.8,2.2,23.7,2.4c13,0.4,26,0.1,39,0.1c1.6,0,3.3-0.2,4.8-1.2c1.7-1.3,3.1-3,2.6-5
		c-0.5-2.2-2.8-1.1-4.3-1.1c-13.1-0.4-26.3,0.8-39.4-0.8c-12.1-1.5-18.6-10.4-14.6-22c4-11.7,9-23.2,16.8-33.2
		c6.2-7.9,14.7-10.8,24.1-11c15.7-0.3,31.3-0.1,47-0.1C606.5,1.5,606.5,1.4,606.5,1.4z"/>
	<path d="M304,90.7c-4.4,3.9-9.6,5.2-14.9,5.4c-12.3,0.4-24.6,1-36.9-0.4c-16.2-1.9-23.3-13.9-17.3-29.1c2.6-6.6,5.4-13.2,9.3-19.3
		c6.4-10.3,15.7-15.4,27.9-15.3c16.2,0.1,32.3,0,48.5,0c4.3,0,8.3-0.4,10.1-5.4c1-2.9,0.3-4.5-2.8-4.9c-1.5-0.2-3-0.2-4.5-0.2
		c-9.7,0-19.3-0.2-29,0c-13.7,0.4-27.7-2.3-41,3.7c4.9-7.4,9.9-14.7,14.7-22.1c1.1-1.7,2.5-1.9,4.2-1.9c29.3,0,58.6-0.2,88,0.1
		c13.6,0.1,21.8,11,19.2,24.4c-1.6,7.9-5.6,14.9-8.8,22.2c-4.5,10-9.1,19.9-13.7,29.9c-2.3,5-4.4,10.1-3.8,15.8
		c0.2,2.3-0.6,2.8-2.8,2.8c-14.2-0.1-28.3-0.2-42.5,0C303.5,96.5,305.3,93.2,304,90.7z"/>
	<path d="M123.9,196.5c-6,4.8-13.2,5.3-20.7,5.3c-9.8-0.1-19.7,0.2-29.5-0.3c-12-0.5-19.9-7.5-21-17.5c-0.1-0.8-0.3-1.7-0.1-2.5
		c3-14.4,8.4-27.7,19.6-37.7c5.3-4.7,12-6.2,19-6.2c16.7,0,33.3,0,50,0c4.4,0,7.8-1,9.3-5.8c0.9-2.8,0.1-4.1-2.7-4.4
		c-0.7-0.1-1.3-0.3-2-0.3c-18.5,0-37,0-55.5,0.1c-5.9,0-11.4,1.6-17.3,3.8c5.1-7.7,10.3-15.4,15.4-23.2c0.9-1.4,2.3-1.1,3.6-1.1
		c29,0,58-0.2,87,0.1c15.7,0.1,24.4,12.7,19.3,27.8c-5.2,15.4-13.2,29.7-19.8,44.6c-2.9,6.5-6.4,12.9-5.6,20.4
		c0.2,2-0.9,2.1-2.4,2.1c-14.5,0-29-0.1-43.5,0C123.1,201.8,125.6,198.1,123.9,196.5z"/>
	<path d="M671.2,195.6c-5.6,4.6-10.9,6-16.5,6c-11.3,0.1-22.7,0.3-34-0.1c-17.9-0.7-26.2-14-19.2-30.4c3-7,5.8-14.1,10.4-20.4
		c6.3-8.7,14.8-13.1,25.5-13.1c16.8,0,33.6,0,50.5,0c4,0,7.3-1,8.8-5.1c1-2.8,0.9-5-2.9-5.1c-0.7,0-1.3-0.3-2-0.3
		c-18.8,0.1-37.6,0.2-56.4,0.3c-5.5,0-10.7,1.9-16.8,4.8c5.7-8.6,10.8-16.1,15.7-23.7c1.1-1.7,2.5-1.9,4.2-1.9c29,0,58-0.2,86.9,0.1
		c15.2,0.1,23.7,11.9,19.6,26.5c-3.6,12.7-10.5,24-15.6,36c-3.3,7.8-7.9,15-9.7,23.4c-0.2,0.8-0.7,1.7-0.5,2.4
		c1.4,6.6-2.4,6.8-7.4,6.6c-11.8-0.3-23.7-0.3-35.5,0C672.5,201.9,670,201.4,671.2,195.6z"/>
	<path d="M587.3,179.8c-4.2,6.9-8.4,13.6-12.4,20.4c-1,1.6-2.4,1.4-3.9,1.4c-27.6,0-55.3,0-82.9-0.1c-3.1,0-6.3-0.5-9.4-1.2
		c-11.3-2.6-17.5-13-14.8-24.3c1.3-5.4,4-10.2,6.3-15.1c4.9-10.7,10-21.3,14.8-32.1c6-13.7,16.6-21.6,31.2-21.9
		c25.3-0.5,50.6-1.3,75.9,0.5c13.8,1,20.9,11.4,17.5,24.9c-2.7,10.7-8.6,20.1-12.8,30.2c-1.1,2.6-3.3,1.8-5.1,1.8
		c-22.8,0-45.6,0.2-68.4-0.1c-4.3,0-6.4,1.1-8.1,5.1c-4.8,11.3-4.6,12.2,7.6,12.1c19.1-0.1,38.3,1.1,57.4-0.8
		C582.3,180.5,584.4,179,587.3,179.8z"/>
	<path d="M726.1,201.7c11.2-11.2,15.9-24.6,21.9-37.4c11.2-24.1,22.2-48.2,33.3-72.4c2.4-5.2,4.5-10.4,3.9-16.3
		c-0.3-2.3,1-2.3,2.6-2.3c16.8,0,33.6,0,50.5,0c0.7,1.6-0.3,2.6-0.8,3.7c-16.1,35.1-32.3,70.3-48.5,105.4
		c-2.4,5.3-4.8,10.7-4.2,16.7c0.2,2.2-0.6,2.5-2.4,2.5C764,201.7,745.7,201.7,726.1,201.7z"/>
	<path class="st0" d="M253.3,181.5c-13.9,0-14.5-0.9-8.7-13.4c5-10.8,10.2-21.6,14.8-32.6c2.7-6.2,6.8-9,13.5-8.5
		c4.1,0.3,8.3,0,12.5,0.2c3.8,0.2,5.5,1.8,3.7,5.8c-6.6,14-13,28-19.6,41.9C266.5,181.1,264.9,181.5,253.3,181.5z"/>
	<path class="st0" d="M306.4,52c3.5,0.5,7.8-0.9,12,0.7c-1.6,3.8-3.7,7.5-4.7,11.4c-2.7,10-9.2,13.3-18.9,12
		c-3.1-0.4-6.3-0.2-9.4-0.4c-3.6-0.2-4.8-1.9-3.3-5.3c0.7-1.5,1.4-3,2.1-4.5C291.4,50.1,289.1,52.2,306.4,52z"/>
	<path class="st0" d="M139.1,157.5c-3.3,7.1-6.3,13.5-9.3,19.9c-1.2,2.5-3.1,3.9-5.8,3.9c-6,0.1-12,0.3-17.9,0
		c-4.7-0.2-5.5-1.8-3.9-6.1c0.1-0.3,0.2-0.6,0.4-0.9c9.6-19.8,5.1-16.5,25.7-16.8C131.5,157.5,134.8,157.5,139.1,157.5z"/>
	<path class="st0" d="M685.4,157.6c-3.2,6.9-6.2,13.3-9.2,19.7c-1.2,2.7-3.3,4.1-6.3,4.1c-5.8,0-11.6,0.2-17.4,0
		c-4.9-0.2-5.8-1.8-3.8-6.4c1.9-4.4,4.1-8.7,6.2-13c1.2-2.6,3.3-4.2,6.2-4.2C669,157.6,676.9,157.6,685.4,157.6z"/>
	<path class="st1" d="M527,144c8.6-20,7.1-16.8,24.6-17c12.1-0.2,11.8-0.1,7.4,10.9c-2,5-4.7,6.6-10,6.2
		C541.8,143.7,534.7,144,527,144z"/>
	<path d="M368.1,194.7c-4.3,10-9.1,18.5-12.3,27.8c-0.7,2-1.3,4.1-1.6,6.3c-0.9,6.6-0.8,6.6-7.7,6.6c-13.5,0-27,0-40.5,0
		c-5.7,0-5.7,0-3.2-5.5c16-34.7,32-69.3,48-104c2.4-5.3,4.8-10.7,4.1-16.7c-0.2-2.2,0.7-2.5,2.5-2.5c15.3,0,30.7,0,46,0
		c0.9,0,1.9-0.5,2.5,0.8c1.2,2.6,1.2,2.4,4,1.3c2.5-0.9,5.1-1.9,7.7-1.9c13.5-0.2,27-1.2,40.4,0.5c13,1.6,19.6,11.9,16,24.5
		c-2.1,7.4-5.9,14.1-9.1,21c-4.2,9.2-8.5,18.4-12.8,27.5c-6.5,13.7-17.3,20.7-32.4,20.9c-13.3,0.2-26.7,0.1-40,0
		C375.1,201.5,370.9,200.3,368.1,194.7z"/>
	<path class="st0" d="M389.2,181.5c-13.9,0-14.5-0.9-8.7-13.4c5-10.8,10.2-21.6,14.8-32.6c2.7-6.2,6.8-9,13.5-8.5
		c4.1,0.3,8.3,0,12.5,0.2c3.8,0.2,5.5,1.8,3.7,5.8c-6.6,14-13,28-19.6,41.9C402.4,181.1,400.8,181.5,389.2,181.5z"/>
</g>
</svg>
